<?xml version="1.0" standalone="no"?>
<!DOCTYPE svg PUBLIC "-//W3C//DTD SVG 20010904//EN"
 "http://www.w3.org/TR/2001/REC-SVG-20010904/DTD/svg10.dtd">
<svg version="1.0" xmlns="http://www.w3.org/2000/svg"
 width="700.000000pt" height="700.000000pt" viewBox="0 0 700.000000 700.000000"
 preserveAspectRatio="xMidYMid meet">
<metadata>
Created by potrace 1.11, written by Peter Selinger 2001-2013
</metadata>
<g transform="translate(0.000000,700.000000) scale(0.100000,-0.100000)"
fill="#000000" stroke="none">
<path d="M0 3500 l0 -3500 3500 0 3500 0 0 3500 0 3500 -3500 0 -3500 0 0
-3500z m2595 1001 c414 -91 672 -394 735 -861 15 -109 15 -331 0 -440 -27
-206 -113 -424 -220 -557 -162 -201 -418 -318 -726 -330 -311 -13 -544 53
-740 208 -152 121 -264 319 -315 558 -30 140 -37 437 -15 589 73 491 338 772
801 847 122 20 359 13 480 -14z m2040 -877 l570 -875 3 875 2 876 140 0 140 0
0 -1080 0 -1080 -173 0 -173 0 -570 876 -569 876 -3 -876 -2 -876 -140 0 -140
0 0 1073 c0 591 3 1077 7 1080 3 4 81 7 172 7 l166 0 570 -876z"/>
<path d="M2235 4284 c-284 -30 -479 -187 -564 -454 -36 -115 -52 -235 -52
-410 0 -481 159 -754 491 -846 82 -23 326 -26 410 -5 108 26 219 88 292 162
161 163 240 470 210 817 -20 228 -76 401 -170 519 -74 93 -200 169 -327 198
-65 15 -226 25 -290 19z"/>
</g>
</svg>
