<?xml version="1.0" standalone="no"?>
<!DOCTYPE svg PUBLIC "-//W3C//DTD SVG 20010904//EN"
 "http://www.w3.org/TR/2001/REC-SVG-20010904/DTD/svg10.dtd">
<svg version="1.0" xmlns="http://www.w3.org/2000/svg"
 width="700.000000pt" height="700.000000pt" viewBox="0 0 700.000000 700.000000"
 preserveAspectRatio="xMidYMid meet">
<metadata>
Created by potrace 1.11, written by Peter Selinger 2001-2013
</metadata>
<g transform="translate(0.000000,700.000000) scale(0.100000,-0.100000)"
fill="#000000" stroke="none">
<path d="M0 3500 l0 -3500 3500 0 3500 0 0 3500 0 3500 -3500 0 -3500 0 0
-3500z m2435 1060 c201 -17 358 -70 515 -176 242 -162 415 -464 441 -770 13
-148 -2 -469 -26 -559 -23 -85 -123 -289 -178 -361 -26 -34 -89 -102 -141
-152 -82 -78 -110 -97 -208 -145 -208 -101 -316 -122 -592 -115 -147 4 -184 9
-261 32 -289 84 -518 275 -650 540 -97 196 -134 389 -122 651 7 149 22 231 70
372 43 131 102 232 199 342 97 112 184 179 313 241 187 91 382 121 640 100z
m1665 -49 c3 -3 244 -364 535 -801 l530 -795 5 788 c5 750 6 789 23 802 39 28
284 32 311 5 8 -8 12 -343 14 -1100 l3 -1090 -194 0 -195 0 -154 233 c-85 127
-325 488 -534 802 l-379 569 -5 -796 c-3 -438 -9 -800 -13 -805 -10 -9 -296
-8 -326 2 -17 5 -19 21 -26 208 -12 342 -2 1938 13 1964 9 16 24 23 55 26 56
6 331 -4 337 -12z"/>
<path d="M2230 4219 c-160 -10 -276 -59 -387 -163 -187 -174 -265 -424 -235
-754 26 -286 133 -481 335 -605 76 -47 165 -75 281 -89 162 -21 353 19 473 99
114 75 219 220 277 381 l31 87 0 240 c-1 234 -1 242 -28 320 -96 283 -304 463
-560 483 -51 4 -135 4 -187 1z"/>
</g>
</svg>
